<svg xmlns="http://www.w3.org/2000/svg" width="16" height="16" viewBox="0 0 16 16" fill="none">
  <path d="M6.26699 9.8799H2.00033C1.76033 9.8799 1.5381 9.8199 1.33366 9.6999C1.12921 9.5799 0.966992 9.41768 0.846992 9.21324C0.726992 9.00879 0.666992 8.78657 0.666992 8.54657V7.14657C0.666992 6.96879 0.702548 6.7999 0.773659 6.6399L2.82699 1.62657C2.88033 1.50213 2.96255 1.40213 3.07366 1.32657C3.18477 1.25102 3.30699 1.21324 3.44033 1.21324H14.667C14.8537 1.21324 15.0114 1.27768 15.1403 1.40657C15.2692 1.53546 15.3337 1.69324 15.3337 1.8799V8.54657C15.3337 8.73324 15.2692 8.89102 15.1403 9.0199C15.0114 9.14879 14.8537 9.21324 14.667 9.21324H12.347C12.2403 9.21324 12.1381 9.23768 12.0403 9.28657C11.9425 9.33546 11.8625 9.40435 11.8003 9.49324L8.16033 14.6399C8.11588 14.711 8.05366 14.7577 7.97366 14.7799C7.89366 14.8021 7.8181 14.791 7.74699 14.7466L6.53366 14.1466C6.18699 13.9688 5.93144 13.7021 5.76699 13.3466C5.60255 12.991 5.56921 12.6221 5.66699 12.2399L6.26699 9.8799ZM11.3337 8.1599V2.54657H3.89366L2.00033 7.14657V8.54657H6.26699C6.55144 8.54657 6.80699 8.62657 7.03366 8.78657C7.26033 8.94657 7.42255 9.15546 7.52033 9.41324C7.6181 9.67102 7.63144 9.93768 7.56033 10.2132L6.96033 12.5732C6.94255 12.6532 6.94921 12.7288 6.98033 12.7999C7.01144 12.871 7.06255 12.9243 7.13366 12.9599L7.57366 13.1732L10.707 8.7199C10.8759 8.48879 11.0848 8.30213 11.3337 8.1599ZM12.667 7.8799H14.0003V2.54657H12.667V7.8799Z" fill="#EF4444"/>
</svg>