<svg xmlns="http://www.w3.org/2000/svg" width="16" height="16" viewBox="0 0 16 16" fill="none">
  <path d="M9.73366 6.12044H14.0003C14.2403 6.12044 14.4625 6.18044 14.667 6.30044C14.8714 6.42044 15.0337 6.58266 15.1537 6.78711C15.2737 6.99155 15.3337 7.21378 15.3337 7.45378V8.85378C15.3337 9.03155 15.2981 9.20044 15.227 9.36044L13.1737 14.3738C13.1203 14.4982 13.0381 14.5982 12.927 14.6738C12.8159 14.7493 12.6937 14.7871 12.5603 14.7871H1.33366C1.14699 14.7871 0.989214 14.7227 0.860326 14.5938C0.731437 14.4649 0.666992 14.3071 0.666992 14.1204V7.45378C0.666992 7.26711 0.731437 7.10933 0.860326 6.98044C0.989214 6.85155 1.14699 6.78711 1.33366 6.78711H3.65366C3.76033 6.78711 3.86255 6.76266 3.96033 6.71378C4.0581 6.66489 4.1381 6.596 4.20033 6.50711L7.84033 1.36044C7.88477 1.28933 7.94699 1.24266 8.02699 1.22044C8.10699 1.19822 8.18255 1.20933 8.25366 1.25378L9.46699 1.85378C9.81366 2.03155 10.0692 2.29822 10.2337 2.65378C10.3981 3.00933 10.4314 3.37822 10.3337 3.76044L9.73366 6.12044ZM4.66699 7.84044V13.4538H12.107L14.0003 8.85378V7.45378H9.73366C9.44921 7.45378 9.19366 7.37378 8.96699 7.21378C8.74033 7.05378 8.5781 6.84489 8.48033 6.58711C8.38255 6.32933 8.36921 6.06266 8.44033 5.78711L9.04033 3.42711C9.0581 3.34711 9.05144 3.27155 9.02033 3.20044C8.98921 3.12933 8.9381 3.076 8.86699 3.04044L8.42699 2.82711L5.29366 7.28044C5.12477 7.51155 4.91588 7.69822 4.66699 7.84044ZM3.33366 8.12044H2.00033V13.4538H3.33366V8.12044Z" fill="#2463EB"/>
</svg>